# xmcd
#
# Track frame offsets:
#	150
#	24532
#	46510
#	58805
#	78090
#	94735
#	110527
#	127567
#	141935
#	162227
#	182227
#	204202
#	216585
#	234165
#
# Disc length: 3500
#
# Revision: 1
# Processed by: cddbd v1.5.1PL0 Copyright (c) Steve Scherf et al.
# Submitted via: CD-DA_X-Tractor v0.23
# Normalized: r0:DSETVAR1,TDELIM( - )
#
DISCID=b10daa0e
DTITLE=Various Artist - Bailão de Peão 2
DYEAR=1900
DGENRE=
TTITLE0=Bailão de Peão - Chitãozinho e Xororó
TTITLE1=Serafim e Seus Filhos - Ruy Maurity
TTITLE2=Boi na Linha - Bill Valley
TTITLE3=Disparada - Jair Rodrigues
TTITLE4=O Povo Fala com Razão - Tiãozinho e Alessandro
TTITLE5=Vá pro Inferno com Seu Amor - Chitãozinho e Xororó
TTITLE6=Cavalo Baio - Danny e Daniel
TTITLE7=A Saudade Vai - Tonico e Tinoco
TTITLE8=De Carona na Felicidade - Kátia, Tiãozinho e Alessandro
TTITLE9=Segura Peão - Swing Brasil
TTITLE10=Pot-Pourri ( Etc.. e Tal e Janbalaya) - Sandy e Júnior
TTITLE11=Pedras no Caminho - Adalberto e Adriano
TTITLE12=Coração Sertanejo - Chitãozinho e Xororó
TTITLE13=Romaria - Elis Regina
EXTD=
EXTT0=
EXTT1=
EXTT2=
EXTT3=
EXTT4=
EXTT5=
EXTT6=
EXTT7=
EXTT8=
EXTT9=
EXTT10=
EXTT11=
EXTT12=
EXTT13=
PLAYORDER=
